<svg enable-background="new 0 0 32 32" height="32" viewBox="0 0 32 32" width="32" xmlns="http://www.w3.org/2000/svg"><path d="m28.01 11.98c0 .56-.45 1.01-1.01 1.01s-1.01-.45-1.01-1.01c0-.55.45-1 1.01-1s1.01.45 1.01 1z" fill="#31cfff"/><path d="m19 13.03v1.03c1.13.23 1.99 1.24 1.99 2.44 0 1.37-1.12 2.49-2.49 2.49-1.2 0-2.21-.86-2.44-1.99h-1.03c0 .07.02.14.03.21.33 1.6 1.74 2.8 3.44 2.8 1.94 0 3.51-1.569 3.51-3.51 0-1.77-1.31-3.23-3.01-3.47zm-1 1.03v-1.04c-1.47.21-2.64 1.33-2.94 2.77-.01.07-.03.14-.03.21h1.03c.2-.97.97-1.74 1.94-1.94z" fill="#2d2220"/><path d="m20.99 16.5c0 1.2-.86 2.21-1.99 2.44-1.13-.23-1.99-1.24-1.99-2.44s.86-2.21 1.99-2.44c1.13.23 1.99 1.24 1.99 2.44z" fill="#31cfff"/><path d="m6 6h5v1h-5z" fill="#2d2220"/><path d="m19 10.02v1.02c2.81.25 4.99 2.6 4.99 5.46 0 3.03-2.46 5.49-5.49 5.49-2.86 0-5.21-2.19-5.46-4.99h-1.02c.25 3.36 3.06 6 6.48 6 3.59 0 6.5-2.91 6.5-6.5 0-3.42-2.64-6.23-6-6.48zm-1 1.02v-1.02c-3.19.24-5.74 2.79-5.98 5.98h1.02c.23-2.63 2.32-4.73 4.96-4.96z" fill="#2d2220"/><path d="m18.5 11.01c-3.04 0-5.49 2.46-5.49 5.49s2.46 5.49 5.49 5.49 5.49-2.46 5.49-5.49-2.45-5.49-5.49-5.49zm0 9.98c-2.48 0-4.49-2.01-4.49-4.49s2.01-4.49 4.49-4.49 4.49 2.01 4.49 4.49-2.01 4.49-4.49 4.49z" fill="#5fffba"/><g fill="#2d2220"><path d="m29 18v-8c0-1.1-.9-2-2-2h-22c-1.1 0-2 .9-2 2v13c0 1.1.9 2 2 2h22c1.1 0 2-.9 2-2h-1c0 .55-.45 1-1 1h-22c-.55 0-1-.45-1-1v-13c0-.55.45-1 1-1h22c.55 0 1 .45 1 1v8z"/><path d="m27.01 10.98c0 .56-.45 1.01-1.01 1.01s-1.01-.45-1.01-1.01c0-.55.45-1 1.01-1s1.01.45 1.01 1z"/><path d="m11 10v4h-3v-1h2v-2h-4v-1z"/><path d="m6 13h1v1h-1z"/></g><path d="m6 11h4v2h-4z" fill="#5fffba"/><path d="m30 21.5c0 .28-.22.5-.5.5h-2c-.28 0-.5-.22-.5-.5s.22-.5.5-.5h2c.28 0 .5.22.5.5z" fill="#2d2220"/><path d="m30 19.5c0 .28-.22.5-.5.5h-2c-.28 0-.5-.22-.5-.5s.22-.5.5-.5h2c.28 0 .5.22.5.5z" fill="#2d2220"/></svg>