<svg width="176" height="177" viewBox="0 0 176 177" fill="none" xmlns="http://www.w3.org/2000/svg">
<rect width="176" height="176.485" rx="55" fill="#9B7FDD"/>
<rect opacity="0.01" x="38.5" y="38.6061" width="99" height="99.2727" fill="#D8D8D8"/>
<mask id="path-3-inside-1" fill="white">
<path fill-rule="evenodd" clip-rule="evenodd" d="M103.41 130.364C98.748 132.025 93.7287 132.929 88.5 132.929C63.9085 132.929 43.95 112.935 43.95 88.2424C43.95 63.55 63.9085 43.5561 88.5 43.5561C113.091 43.5561 133.05 63.55 133.05 88.2424C133.05 93.5069 132.143 98.5578 130.477 103.247L128.909 104.817L104.988 128.783L103.41 130.364ZM108.335 133.733C102.262 136.399 95.5534 137.879 88.5 137.879C61.1619 137.879 39 115.656 39 88.2424C39 60.829 61.1619 38.6061 88.5 38.6061C115.838 38.6061 138 60.829 138 88.2424C138 95.3212 136.522 102.054 133.859 108.147V128.783C133.859 131.517 131.643 133.733 128.909 133.733H108.335ZM117.068 128.783H128.909V116.917C125.661 121.512 121.652 125.529 117.068 128.783Z"/>
</mask>
<path d="M103.41 130.364L106.179 138.136L107.934 137.511L109.25 136.192L103.41 130.364ZM130.477 103.247L136.316 109.075L137.629 107.76L138.251 106.009L130.477 103.247ZM128.909 104.817L134.748 110.646L134.748 110.646L128.909 104.817ZM104.988 128.783L110.827 134.612L110.827 134.612L104.988 128.783ZM108.335 133.733V125.483H106.604L105.018 126.179L108.335 133.733ZM133.859 108.147L126.3 104.843L125.609 106.423V108.147H133.859ZM117.068 128.783L112.292 122.056L91.1923 137.033H117.068V128.783ZM128.909 128.783V137.033H137.159V128.783H128.909ZM128.909 116.917H137.159V90.9574L122.173 112.155L128.909 116.917ZM88.5 141.179C94.6856 141.179 100.641 140.109 106.179 138.136L100.642 122.592C96.8555 123.941 92.7718 124.679 88.5 124.679V141.179ZM35.7 88.2424C35.7 117.471 59.3315 141.179 88.5 141.179V124.679C68.4856 124.679 52.2 108.399 52.2 88.2424H35.7ZM88.5 35.3061C59.3315 35.3061 35.7 59.0143 35.7 88.2424H52.2C52.2 68.0857 68.4856 51.8061 88.5 51.8061V35.3061ZM141.3 88.2424C141.3 59.0143 117.668 35.3061 88.5 35.3061V51.8061C108.514 51.8061 124.8 68.0857 124.8 88.2424H141.3ZM138.251 106.009C140.227 100.445 141.3 94.4607 141.3 88.2424H124.8C124.8 92.5532 124.058 96.6706 122.703 100.485L138.251 106.009ZM134.748 110.646L136.316 109.075L124.638 97.4188L123.07 98.9893L134.748 110.646ZM110.827 134.612L134.748 110.646L123.07 98.9893L99.1492 122.955L110.827 134.612ZM109.25 136.192L110.827 134.612L99.1492 122.955L97.5714 124.536L109.25 136.192ZM105.018 126.179C99.9709 128.395 94.3897 129.629 88.5 129.629V146.129C96.7172 146.129 104.554 144.404 111.651 141.287L105.018 126.179ZM88.5 129.629C65.7396 129.629 47.25 111.121 47.25 88.2424H30.75C30.75 120.191 56.5842 146.129 88.5 146.129V129.629ZM47.25 88.2424C47.25 65.364 65.7396 46.8561 88.5 46.8561V30.3561C56.5842 30.3561 30.75 56.2941 30.75 88.2424H47.25ZM88.5 46.8561C111.26 46.8561 129.75 65.364 129.75 88.2424H146.25C146.25 56.2941 120.416 30.3561 88.5 30.3561V46.8561ZM129.75 88.2424C129.75 94.1632 128.516 99.7726 126.3 104.843L141.419 111.451C144.529 104.335 146.25 96.4791 146.25 88.2424H129.75ZM125.609 108.147V128.783H142.109V108.147H125.609ZM125.609 128.783C125.609 126.961 127.087 125.483 128.909 125.483V141.983C136.199 141.983 142.109 136.074 142.109 128.783H125.609ZM128.909 125.483H108.335V141.983H128.909V125.483ZM117.068 137.033H128.909V120.533H117.068V137.033ZM137.159 128.783V116.917H120.659V128.783H137.159ZM122.173 112.155C119.462 115.989 116.116 119.342 112.292 122.056L121.843 135.511C127.188 131.716 131.86 127.035 135.646 121.68L122.173 112.155Z" fill="white" mask="url(#path-3-inside-1)"/>
<path d="M101.169 98.957C99.9824 100.378 98.3052 101.484 96.1372 102.275C93.9692 103.051 91.5669 103.439 88.9302 103.439C86.1616 103.439 83.73 102.839 81.6353 101.638C79.5552 100.422 77.9438 98.6641 76.8013 96.3643C75.6733 94.0645 75.0947 91.3618 75.0654 88.2563V86.0811C75.0654 82.8877 75.6001 80.1265 76.6694 77.7974C77.7534 75.4536 79.3062 73.6665 81.3276 72.436C83.3638 71.1909 85.7441 70.5684 88.4688 70.5684C92.2627 70.5684 95.229 71.4766 97.3677 73.293C99.5063 75.0947 100.773 77.7241 101.169 81.1812H94.7529C94.46 79.3501 93.8081 78.0098 92.7974 77.1602C91.8013 76.3105 90.4243 75.8857 88.6665 75.8857C86.4253 75.8857 84.7188 76.728 83.5469 78.4126C82.375 80.0972 81.7817 82.6021 81.7671 85.9272V87.9707C81.7671 91.3252 82.4043 93.8594 83.6787 95.5732C84.9531 97.2871 86.8208 98.144 89.2817 98.144C91.7573 98.144 93.5225 97.6167 94.5771 96.562V91.0469H88.5786V86.1909H101.169V98.957Z" fill="white"/>
</svg>
