<svg enable-background="new 0 0 48 48" height="48" viewBox="0 0 48 48" width="48" xmlns="http://www.w3.org/2000/svg"><g fill="#231f20"><path d="m18 36.137v-2.137h2c.553 0 1-.448 1-1v-4c0-.552-.447-1-1-1h-11c-.553 0-1 .448-1 1v4c0 .552.447 1 1 1h1v2.142c-6.185 1.085-9.422 4.619-9.888 10.783-.021.277.074.551.264.755.189.204.455.32.733.32h26.15c.278 0 .544-.116.733-.321.19-.204.285-.477.264-.755-.467-6.171-3.825-9.707-10.256-10.787zm-15.777 9.863c.689-4.798 3.476-7.284 8.909-8.009.497-.066.868-.49.868-.991v-4c0-.552-.447-1-1-1h-1v-2h9v2h-2c-.553 0-1 .448-1 1v4c0 .503.374.928.872.992 5.668.729 8.569 3.215 9.272 8.008z"/><path d="m46.707.293c-.002-.002-.005-.003-.007-.004-.003-.003-.004-.007-.007-.011-.06-.057-.132-.088-.201-.128-.042-.024-.079-.061-.124-.079-.071-.028-.145-.032-.22-.043-.053-.008-.104-.028-.158-.027-.067.001-.131.024-.197.038-.06.013-.121.015-.178.039-.064.027-.117.076-.175.117-.049.034-.104.054-.147.098-.002.002-.003.006-.005.008-.003.003-.006.003-.009.006l-5.279 5.499v-4.806c0-.35-.183-.674-.483-.856-.297-.181-.671-.193-.981-.03-2.11 1.105-5.436 3.356-8.442 6.362-5.853 5.853-8.457 12.605-6.435 16.123-.001.067.018.131.03.198l-2.41 2.511c-.382.399-.369 1.032.029 1.414.193.186.443.278.692.278.263 0 .525-.103.722-.308l2.411-2.511c.943.514 2.058.783 3.302.783 3.386 0 7.632-1.846 11.347-5.225.306-.278.409-.716.26-1.101s-.52-.639-.933-.639h-8.042l1.921-2.001c.005 0 .008.002.012.002h9.109c.553 0 1-.448 1-1s-.447-1-1-1h-7.203l1.948-2.029c.05.007.094.029.146.029h8.019c.358 0 .689-.192.867-.502 2.621-4.572 2.951-9.075.821-11.205zm-15.199 7.598c2.206-2.206 4.633-4.002 6.492-5.16v5.158l-12.794 13.328c-.967-2.589 1.1-8.124 6.302-13.326zm4.767 12.108c-3.752 2.65-7.47 3.447-9.682 2.661l2.554-2.661zm8.154-9.999h-5.683l7.08-7.375c.616 1.679.11 4.536-1.397 7.375z"/></g></svg>