<svg enable-background="new 0 0 24 24" height="24" viewBox="0 0 24 24" width="24" xmlns="http://www.w3.org/2000/svg"><g fill="none"><g stroke="#58595b" stroke-linecap="round" stroke-linejoin="round" stroke-miterlimit="10"><path d="m12.5 10.5h-1"/><path d="m.5 10.5 2-9h19l2 9"/><path d="m.5 23.5 1-3-.5-3.5 1-5.5h1v4.5l2-6.5h1.5l-1 6.5 2.5-6.5h1.5l-2 8 2.5-1.5 1 .5-4 5-.5 2"/><path d="m23.5 23.5-1-3 .5-3.5-1-5.5h-1v4.5l-2-6.5h-1.5l1 6.5-2.5-6.5h-1.5l2 8-2.5-1.5-1 .5 4 5 .5 2"/><path d="m5.5 4.5h.5"/><path d="m8 4.5h.5"/><path d="m10.5 4.5h.5"/><path d="m13 4.5h.5"/><path d="m15.5 4.5h.5"/><path d="m18 4.5h.5"/><path d="m4.5 6.5h.5"/><path d="m7 6.5h.5"/><path d="m9.5 6.5h.5"/><path d="m12 6.5h.5"/><path d="m14.5 6.5h.5"/><path d="m17 6.5h.5"/><path d="m19.5 6.5h.5"/></g><path d="m0 0h24v24h-24z"/></g></svg>