<svg enable-background="new 0 0 48 48" height="48" viewBox="0 0 48 48" width="48" xmlns="http://www.w3.org/2000/svg"><path d="m36 24h-4v-2h4c.552 0 1-.448 1-1v-12c0-1.654-1.346-3-3-3h-22c-1.654 0-3 1.346-3 3v12c0 .552.448 1 1 1h4v2h-4c-1.654 0-3-1.346-3-3v-12c0-2.757 2.243-5 5-5h22c2.757 0 5 2.243 5 5v12c0 1.654-1.346 3-3 3z"/><path d="m33 6h-6c-.553 0-1-.447-1-1v-4c0-.553.447-1 1-1h6c.553 0 1 .447 1 1v4c0 .553-.447 1-1 1zm-5-2h4v-2h-4z"/><path d="m19 6h-6c-.553 0-1-.447-1-1v-4c0-.553.447-1 1-1h6c.553 0 1 .447 1 1v4c0 .553-.447 1-1 1zm-5-2h4v-2h-4z"/><path d="m10 40h-6c-.553 0-1-.447-1-1v-3c0-2.206 1.794-4 4-4h3c.553 0 1 .447 1 1v6c0 .553-.447 1-1 1zm-5-2h4v-4h-2c-1.103 0-2 .897-2 2z"/><path d="m10 48h-4c-1.654 0-3-1.346-3-3v-6c0-.553.447-1 1-1h6c.553 0 1 .447 1 1v8c0 .553-.447 1-1 1zm-5-8v5c0 .552.448 1 1 1h3v-6z"/><path d="m42 40h-6c-.553 0-1-.447-1-1v-6c0-.553.447-1 1-1h3c2.206 0 4 1.794 4 4v3c0 .553-.447 1-1 1zm-5-2h4v-2c0-1.103-.897-2-2-2h-2z"/><path d="m40 48h-4c-.553 0-1-.447-1-1v-8c0-.553.447-1 1-1h6c.553 0 1 .447 1 1v6c0 1.654-1.346 3-3 3zm-3-2h3c.552 0 1-.448 1-1v-5h-4z"/><path d="m32 40h-18c-.553 0-1-.447-1-1v-3c0-2.206 1.794-4 4-4h12c2.206 0 4 1.794 4 4v3c0 .553-.447 1-1 1zm-17-2h16v-2c0-1.103-.897-2-2-2h-12c-1.103 0-2 .897-2 2z"/><path d="m16 29c-1.654 0-3-1.346-3-3v-5c0-1.654 1.346-3 3-3s3 1.346 3 3v5c0 1.654-1.346 3-3 3zm0-9c-.552 0-1 .448-1 1v5c0 .552.448 1 1 1s1-.448 1-1v-5c0-.552-.448-1-1-1z"/><path d="m30 29c-1.654 0-3-1.346-3-3v-5c0-1.654 1.346-3 3-3s3 1.346 3 3v5c0 1.654-1.346 3-3 3zm0-9c-.552 0-1 .448-1 1v5c0 .552.448 1 1 1s1-.448 1-1v-5c0-.552-.448-1-1-1z"/><path d="m34 10h-22c-.553 0-1-.447-1-1s.447-1 1-1h22c.553 0 1 .447 1 1s-.447 1-1 1z"/><path d="m14 12c-.553 0-1-.447-1-1v-2c0-.553.447-1 1-1s1 .447 1 1v2c0 .553-.447 1-1 1z"/><path d="m18 42c-.553 0-1-.447-1-1v-4c0-.553.447-1 1-1s1 .447 1 1v4c0 .553-.447 1-1 1z"/><path d="m28 42c-.553 0-1-.447-1-1v-4c0-.553.447-1 1-1s1 .447 1 1v4c0 .553-.447 1-1 1z"/><path d="m18 22h10v2h-10z"/><path d="m10 34c-.553 0-1-.447-1-1v-10c0-.553.447-1 1-1s1 .447 1 1v10c0 .553-.447 1-1 1z"/><path d="m36 34c-.553 0-1-.447-1-1v-10c0-.553.447-1 1-1s1 .447 1 1v10c0 .553-.447 1-1 1z"/><path d="m36 48h-26c-.553 0-1-.447-1-1s.447-1 1-1h26c.553 0 1 .447 1 1s-.447 1-1 1z"/><path d="m32 48c-.553 0-1-.447-1-1v-7h-16v7c0 .553-.447 1-1 1s-1-.447-1-1v-8c0-.553.447-1 1-1h18c.553 0 1 .447 1 1v8c0 .553-.447 1-1 1z"/></svg>