<svg enable-background="new 0 0 32 32" height="32" viewBox="0 0 32 32" width="32" xmlns="http://www.w3.org/2000/svg"><path d="m26 7v13h-10.5c-.28 0-.5-.22-.5-.5s.22-.5.5-.5h9.5v-11h-18v11h1.5c.28 0 .5.22.5.5s-.22.5-.5.5h-2.5v-13z" fill="#2d2220"/><path d="m14 8h11v11h-11z" fill="#ffd561"/><path d="m12 8h1v11h-1z" fill="#ffd561"/><path d="m10 8h1v11h-1z" fill="#ffd561"/><path d="m1 28h30v1h-30z" fill="#ffd561"/><g fill="#2d2220"><path d="m23 5.5c0 .28-.22.5-.5.5h-8c-.28 0-.5-.22-.5-.5s.22-.5.5-.5h8c.28 0 .5.22.5.5z"/><path d="m30.86 26.49-3-5c-.061-.101-.141-.19-.23-.26.22-.29.37-.68.37-1.23v-13s0-2-2-2-2 0-2 0h.5c-.28 0-.5.22-.5.5s.22.5.5.5h1.5c.81 0 .99.55 1 1v13c0 .81-.55.99-1 1h-20c-.81 0-.99-.55-1-1v-13c0-.81.55-.99 1-1h16.5c.279 0 .5-.22.5-.5s-.221-.5-.5-.5h-16.5s-2 0-2 2v13s0 .66.38 1.22c-.09.07-.18.16-.24.271l-3 5c-.18.3-.19.689-.01 1 .18.319.51.509.87.509h28c.36 0 .69-.19.87-.51.18-.31.17-.7-.01-1zm-28.86.51 3-5h22l3 5z"/><path d="m14 19.5c0-.276-.224-.5-.5-.5h-3c-.276 0-.5.224-.5.5 0 .276.224.5.5.5h3c.276 0 .5-.224.5-.5z"/><path d="m19 25.5c0-.276-.224-.5-.5-.5h-13c-.276 0-.5.224-.5.5 0 .276.224.5.5.5h13c.276 0 .5-.224.5-.5z"/><path d="m23 25.5c0-.276-.224-.5-.5-.5h-1c-.276 0-.5.224-.5.5 0 .276.224.5.5.5h1c.276 0 .5-.224.5-.5z"/><path d="m27 25.5c0-.276-.224-.5-.5-.5h-1c-.276 0-.5.224-.5.5 0 .276.224.5.5.5h1c.276 0 .5-.224.5-.5z"/><path d="m25 23.5c0-.276-.224-.5-.5-.5h-9c-.276 0-.5.224-.5.5 0 .276.224.5.5.5h9c.276 0 .5-.224.5-.5z"/><path d="m13 23.5c0-.276-.224-.5-.5-.5h-1c-.276 0-.5.224-.5.5 0 .276.224.5.5.5h1c.276 0 .5-.224.5-.5z"/><path d="m9 23.5c0-.276-.224-.5-.5-.5h-1c-.276 0-.5.224-.5.5 0 .276.224.5.5.5h1c.276 0 .5-.224.5-.5z"/></g></svg>