<svg height="1591" viewBox=".276 .525 124.326 79.116" width="2500" xmlns="http://www.w3.org/2000/svg"><path d="m4.621 6.965c0 1.368-.833 2.38-2.262 2.38-1.19 0-2.083-1.012-2.083-2.38 0-1.31.952-2.381 2.202-2.381 1.31 0 2.143 1.071 2.143 2.381zm-3.294 71.535v-54.72h2.243v54.72zm76.847-38.988c0 27.588-15.315 40.129-32.079 40.129-17.125 0-30.993-13.565-30.993-38.988 0-26.104 14.351-40.127 32.199-40.127 17.486-.002 30.873 13.792 30.873 38.986zm-60.799.57c0 20.918 10.138 37.168 28.826 37.168 18.818 0 29.611-16.75 29.611-37.406 0-19.155-8.648-36.636-28.382-36.636s-30.055 16.459-30.055 36.874zm69.031 32.489c3.763 2.508 10.258 4.93 15.844 4.93 10.602 0 20.031-7.417 20.031-18.334 0-10.131-6.281-15.417-16.945-19.958-9.544-4.064-18.125-8.475-18.125-19.305 0-11.285 8.891-19.267 20.975-19.267 6.498 0 11.4 1.824 13.68 3.42l-.906 1.968c-1.938-1.367-7.176-3.109-12.874-3.109-12.771 0-18.334 9.65-18.334 16.754 0 9.812 7.606 13.093 17.41 17.767 11.399 5.585 17.44 10.51 17.44 21.227 0 11.514-8.207 20.86-22.799 20.86-6.043 0-12.996-2.051-16.416-4.674z"/></svg>