<svg enable-background="new 0 0 48 48" height="48" viewBox="0 0 48 48" width="48" xmlns="http://www.w3.org/2000/svg"><g fill="#231f20"><path d="m16 0v9h2v-7h28v16h-6.414l-6.586 6.586v-6.586h-5v2h3v9.414l9.414-9.414h7.586v-20z"/><path d="m28.22 38.619-7.22-2.586v-3.446c2.235-1.905 3.697-4.993 3.698-8.483 0-5.775-3.991-10.473-8.895-10.473-4.905 0-8.895 4.699-8.895 10.473 0 3.692 1.635 6.937 4.092 8.803v3.126l-7.22 2.587c-2.261.809-3.78 2.98-3.78 5.403v3.977h32v-3.977c0-2.424-1.52-4.595-3.78-5.404zm-12.417-22.987c3.313 0 6.087 2.889 6.745 6.725-2.11.358-3.393-.353-4.669-2.585l-.909-1.589-.846 1.623c-.685 1.313-3.096 2.509-5.059 2.509-.71 0-1.328-.105-1.929-.328.768-3.649 3.461-6.355 6.667-6.355zm-6.894 8.473c0-.033.004-.065.004-.098.679.199 1.383.308 2.152.308 2.13 0 4.458-.973 5.871-2.336 1.269 1.677 2.761 2.474 4.639 2.474.355 0 .729-.038 1.113-.094-.111 4.555-3.152 8.221-6.885 8.221-3.801 0-6.894-3.802-6.894-8.475zm21.091 21.895h-28v-1.977c0-1.581.986-2.996 2.454-3.521l8.546-3.061v-3.403c.882.346 1.823.541 2.803.541 1.128 0 2.203-.258 3.197-.711v3.573l8.546 3.062c1.468.525 2.454 1.939 2.454 3.52z"/><path d="m36 10h2v2h-2z"/><path d="m31 10h2v2h-2z"/><path d="m26 10h2v2h-2z"/></g></svg>