<svg enable-background="new 0 0 48 48" height="48" viewBox="0 0 48 48" width="48" xmlns="http://www.w3.org/2000/svg"><path d="m24 14c-3.86 0-7-3.141-7-7s3.14-7 7-7 7 3.141 7 7-3.14 7-7 7zm0-12c-2.757 0-5 2.243-5 5s2.243 5 5 5 5-2.243 5-5-2.243-5-5-5z"/><path d="m27 38h-6c-.552 0-1-.447-1-1v-7.967c-4.414-2.316-6-8.383-6-13.033 0-.553.448-1 1-1h18c.552 0 1 .447 1 1 0 4.65-1.586 10.717-6 13.033v7.967c0 .553-.448 1-1 1zm-5-2h4v-7.6c0-.402.241-.766.611-.922 3.866-1.63 5.156-6.954 5.359-10.479h-15.94c.203 3.524 1.493 8.849 5.359 10.479.37.157.611.52.611.922z"/><path d="m24 43c-5.571 0-15-.948-15-4.5 0-1.768 2.292-3.064 6.814-3.855.551-.091 1.062.27 1.157.813s-.269 1.062-.812 1.157c-4.014.701-5.092 1.683-5.161 1.907.27.836 4.975 2.478 13.002 2.478s12.732-1.642 13.002-2.522c-.069-.179-1.142-1.156-5.136-1.858-.544-.096-.907-.614-.812-1.158s.608-.904 1.158-.812c4.505.79 6.788 2.086 6.788 3.85 0 3.552-9.429 4.5-15 4.5z"/><path d="m24 48c-15.588 0-24-4.637-24-9 0-4.752 8.198-7.504 15.871-8.495.542-.066 1.048.315 1.12.864.071.548-.316 1.049-.864 1.12-9.274 1.198-14.127 4.182-14.127 6.511 0 3.311 9.035 7 22 7s22-3.689 22-7c0-2.329-4.851-5.312-14.122-6.51-.548-.071-.935-.572-.864-1.12.07-.549.575-.925 1.12-.864 7.67.991 15.866 3.743 15.866 8.494 0 4.363-8.412 9-24 9z"/></svg>