<svg enable-background="new 0 0 24 24" height="24" viewBox="0 0 24 24" width="24" xmlns="http://www.w3.org/2000/svg"><g fill="none"><path d="m6 8 1.5 1.5h4l1.5-1.5" stroke="#58595b" stroke-linecap="round" stroke-linejoin="round" stroke-miterlimit="10"/><path d="m7.5 4.5v.878" stroke="#58595b" stroke-linecap="round" stroke-linejoin="round" stroke-miterlimit="10"/><path d="m11.5 4.5v.878" stroke="#58595b" stroke-linecap="round" stroke-linejoin="round" stroke-miterlimit="10"/><path d="m8.5 14.5h-4l-4 4v-17h18v8" stroke="#58595b" stroke-linecap="round" stroke-linejoin="round" stroke-miterlimit="10"/><path d="m22.5 11.5h-12v9h9l3 3z" stroke="#58595b" stroke-linecap="round" stroke-linejoin="round" stroke-miterlimit="10"/></g><path d="m13.999 14.501c-.051 0-.102.019-.141.059l-.799.799c-.078.078-.078.205 0 .283l.799.799c.039.039.09.059.141.059s.102-.019.142-.059l.799-.799c.078-.078.078-.205 0-.283l-.799-.799c-.039-.04-.091-.059-.142-.059z" fill="#58595b"/><path d="m17 14.501c-.051 0-.102.019-.141.059l-.8.799c-.078.078-.078.205 0 .283l.8.799c.039.039.09.059.141.059s.102-.019.141-.059l.8-.799c.078-.078.078-.205 0-.283l-.8-.799c-.039-.04-.09-.059-.141-.059z" fill="#58595b"/><path d="m20 14.501c-.051 0-.102.019-.141.059l-.8.799c-.078.078-.078.205 0 .283l.8.799c.039.039.09.059.141.059s.102-.019.141-.059l.8-.799c.078-.078.078-.205 0-.283l-.8-.799c-.039-.04-.09-.059-.141-.059z" fill="#58595b"/><path d="m0 0h24v24h-24z" fill="none"/></svg>