<svg enable-background="new 0 0 24 24" height="24" viewBox="0 0 24 24" width="24" xmlns="http://www.w3.org/2000/svg"><g fill="none"><g stroke="#58595b" stroke-linecap="round" stroke-linejoin="round" stroke-miterlimit="10"><path d="m16 10.5 4-4-4-4h-9l-4 4 4 4z"/><path d="m10.5 7-1.5 1-1.5-1v-1.5l1.5-1 1.5 1z"/><path d="m12.5 7 1.5 1 1.5-1v-1.5l-1.5-1-1.5 1z"/><path d="m11.5.5v2"/><path d="m15.5 23.5h-8l-1.5-7.5 2.499-2.5h6.001l2.5 2.5z"/><path d="m11.5 10.5v3"/><path d="m7.1 21.5h8.8"/><path d="m2.5 16 .5 3 3.405-.973"/><path d="m.5 12.5v1.5l2 2 2-2v-1.5"/><path d="m20.5 16-.5 3-3.375-1.125"/><path d="m22.5 12.5v1.5l-2 2-2-2v-1.5"/></g><path d="m0 0h24v24h-24z"/></g></svg>