<svg enable-background="new 0 0 48 48" height="48" viewBox="0 0 48 48" width="48" xmlns="http://www.w3.org/2000/svg"><path clip-rule="evenodd" d="m43 43h-35c-2.209 0-4-1.791-4-4v-19.142c-1.723-.446-3-1.996-3-3.858v-2.973c0-.002 0-.003 0-.005v-.022c0-.157.043-.3.107-.433.005-.009.012-.015.017-.023.066-.127.159-.232.271-.32l6.83-6.829c.182-.234.455-.395.775-.395h.021.006 5.994.006 5.994.006 5.994.006 5.994.006 9.973c2.209 0 4 1.791 4 4v30c0 2.209-1.791 4-4 4zm-28-2v-9h-4v9zm-12-25c0 1.104.896 2 2 2s2-.896 2-2v-2h-4zm6.381-9-5 5h3.238l5-5zm-.381 9c0 1.104.896 2 2 2s2-.896 2-2v-2h-4zm6.381-9-5 5h3.238l5-5zm-.381 9c0 1.104.896 2 2 2s2-.896 2-2v-2h-4zm6.381-9-5 5h3.238l5-5zm-.381 9c0 1.104.896 2 2 2s2-.896 2-2v-2h-4zm6.381-9-5 5h3.238l5-5zm4.619 1.381-5 5v2.619c0 2.209-1.791 4-4 4-1.201 0-2.267-.541-3-1.379-.733.838-1.799 1.379-3 1.379s-2.267-.541-3-1.379c-.733.838-1.799 1.379-3 1.379-1.203 0-2.268-.541-3.002-1.381-.521.591-1.209 1.035-1.998 1.239v19.142c0 1.104.896 2 2 2h1v-10c0-.553.447-1 1-1h6c.553 0 1 .447 1 1v10h13c1.104 0 2-.896 2-2zm13 .619c0-1.104-.896-2-2-2h-9v32c0 .732-.211 1.41-.555 2h9.555c1.104 0 2-.896 2-2zm-17 23h-8c-.553 0-1-.447-1-1v-7c0-.553.447-1 1-1h8c.553 0 1 .447 1 1v7c0 .553-.447 1-1 1zm-1-7h-6v5h6z" fill-rule="evenodd"/></svg>