<svg enable-background="new 0 0 48 48" height="48" viewBox="0 0 48 48" width="48" xmlns="http://www.w3.org/2000/svg"><path clip-rule="evenodd" d="m41 47h-34c-2.762 0-5-2.238-5-5v-40c0-.552.447-1 1-1h34c.414 0 .77.252.922.611.05.119.078.251.078.389v14h7c.553 0 1 .448 1 1v25c0 2.762-2.238 5-5 5zm-5-5v-39h-32v39c0 1.657 1.344 3 3 3h30.022c-.632-.838-1.022-1.869-1.022-3zm8-24h-6v24c0 1.657 1.343 3 3 3s3-1.343 3-3zm-37 22c0-.552.447-1 1-1h9c.553 0 1 .448 1 1 0 .553-.447 1-1 1h-9c-.553 0-1-.447-1-1zm4.666-16.285c-.381.381-.999.381-1.381 0-.381-.381-.381-1 0-1.381l5.905-5.905c.032-.047.053-.101.095-.143.197-.197.457-.288.715-.282.258-.006.518.084.715.282.042.042.062.096.095.143l4.19 4.19 2.19-2.19c.032-.047.053-.101.095-.143.197-.197.457-.288.715-.281.258-.007.518.084.715.281.042.042.062.096.095.143l3.905 3.905c.381.381.381 1 0 1.381-.382.381-1 .381-1.381 0l-3.334-3.334-1.619 1.619.334.334c.381.381.381 1 0 1.381s-1 .381-1.381 0l-5.334-5.334zm11.334 5.285h9c.553 0 1 .448 1 1 0 .553-.447 1-1 1h-9c-.553 0-1-.447-1-1 0-.552.447-1 1-1zm0 5h9c.553 0 1 .448 1 1 0 .553-.447 1-1 1h-9c-.553 0-1-.447-1-1 0-.552.447-1 1-1zm0 5h9c.553 0 1 .448 1 1 0 .553-.447 1-1 1h-9c-.553 0-1-.447-1-1 0-.552.447-1 1-1zm1-23.5c0 .829-.672 1.5-1.5 1.5s-1.5-.671-1.5-1.5.672-1.5 1.5-1.5 1.5.671 1.5 1.5zm3-5.5h-14c-.553 0-1-.448-1-1s.447-1 1-1h14c.553 0 1 .448 1 1s-.447 1-1 1zm-19 24h9c.553 0 1 .448 1 1 0 .553-.447 1-1 1h-9c-.553 0-1-.447-1-1 0-.552.447-1 1-1zm10-4c0 .553-.447 1-1 1h-9c-.553 0-1-.447-1-1 0-.552.447-1 1-1h9c.553 0 1 .448 1 1z" fill-rule="evenodd"/></svg>