<svg enable-background="new 0 0 32 32" height="32" viewBox="0 0 32 32" width="32" xmlns="http://www.w3.org/2000/svg"><path d="m12 18h10v11h-10z" fill="#ffd561"/><path d="m21.66 17h-8.66l3.85-9h.96z" fill="#ffa28d"/><path d="m22.96 17.48-6.5-15.17c-.08-.19-.26-.3-.46-.3s-.38.11-.46.3l-6.5 15.17-.04.19v12.32h14v-12.32zm-8.77-9.48h3.62l3.851 9h-11.321zm7.81 21h-3v-.5c0-.28-.22-.5-.5-.5s-.5.22-.5.5v.5h-2v-3.5c0-.28-.22-.5-.5-.5s-.5.22-.5.5v3.5h-1v-8.5c0-.28-.22-.5-.5-.5s-.5.22-.5.5v8.5h-3v-11h8v7.5c0 .28.22.5.5.5s.5-.22.5-.5v-7.5h3z" fill="#2d2220"/></svg>